{
	"asset":{
		"generator":"Khronos glTF Blender I/O v4.2.70",
		"version":"2.0"
	},
	"scene":0,
	"scenes":[
		{
			"name":"Scene",
			"nodes":[
				0,
				1,
				2
			]
		}
	],
	"nodes":[
		{
			"mesh":0,
			"name":"Cube",
			"translation":[
				4,
				0,
				0
			]
		},
		{
			"mesh":1,
			"name":"Cube.001",
			"translation":[
				6,
				0,
				0
			]
		},
		{
			"mesh":2,
			"name":"Cube.002",
			"translation":[
				1,
				0,
				0
			]
		}
	],
	"materials":[
		{
			"alphaMode":"BLEND",
			"doubleSided":true,
			"name":"texture",
			"pbrMetallicRoughness":{
				"baseColorTexture":{
					"index":0
				},
				"metallicFactor":0
			}
		}
	],
	"meshes":[
		{
			"name":"Cube",
			"primitives":[
				{
					"attributes":{
						"POSITION":0,
						"NORMAL":1,
						"TEXCOORD_0":2
					},
					"indices":3,
					"material":0
				}
			]
		},
		{
			"name":"Cube.001",
			"primitives":[
				{
					"attributes":{
						"POSITION":4,
						"NORMAL":5,
						"TEXCOORD_0":6
					},
					"indices":7,
					"material":0
				}
			]
		},
		{
			"name":"Cube.002",
			"primitives":[
				{
					"attributes":{
						"POSITION":8,
						"NORMAL":9,
						"TEXCOORD_0":10
					},
					"indices":11,
					"material":0
				}
			]
		}
	],
	"textures":[
		{
			"sampler":0,
			"source":0
		}
	],
	"images":[
		{
			"mimeType":"image/png",
			"name":"Frigogidaire_TextMap (1)",
			"uri":"Frigogidaire_TextMap%201.png"
		}
	],
	"accessors":[
		{
			"bufferView":0,
			"componentType":5126,
			"count":732,
			"max":[
				1,
				3.700000047683716,
				1.1600000858306885
			],
			"min":[
				-1,
				0,
				0
			],
			"type":"VEC3"
		},
		{
			"bufferView":1,
			"componentType":5126,
			"count":732,
			"type":"VEC3"
		},
		{
			"bufferView":2,
			"componentType":5126,
			"count":732,
			"type":"VEC2"
		},
		{
			"bufferView":3,
			"componentType":5123,
			"count":1092,
			"type":"SCALAR"
		},
		{
			"bufferView":4,
			"componentType":5126,
			"count":674,
			"max":[
				1,
				3.700000047683716,
				1.1600000858306885
			],
			"min":[
				0,
				0,
				0
			],
			"type":"VEC3"
		},
		{
			"bufferView":5,
			"componentType":5126,
			"count":674,
			"type":"VEC3"
		},
		{
			"bufferView":6,
			"componentType":5126,
			"count":674,
			"type":"VEC2"
		},
		{
			"bufferView":7,
			"componentType":5123,
			"count":1008,
			"type":"SCALAR"
		},
		{
			"bufferView":8,
			"componentType":5126,
			"count":264,
			"max":[
				1,
				3.700000286102295,
				1
			],
			"min":[
				-1,
				0,
				0
			],
			"type":"VEC3"
		},
		{
			"bufferView":9,
			"componentType":5126,
			"count":264,
			"type":"VEC3"
		},
		{
			"bufferView":10,
			"componentType":5126,
			"count":264,
			"type":"VEC2"
		},
		{
			"bufferView":11,
			"componentType":5123,
			"count":396,
			"type":"SCALAR"
		}
	],
	"bufferViews":[
		{
			"buffer":0,
			"byteLength":8784,
			"byteOffset":0,
			"target":34962
		},
		{
			"buffer":0,
			"byteLength":8784,
			"byteOffset":8784,
			"target":34962
		},
		{
			"buffer":0,
			"byteLength":5856,
			"byteOffset":17568,
			"target":34962
		},
		{
			"buffer":0,
			"byteLength":2184,
			"byteOffset":23424,
			"target":34963
		},
		{
			"buffer":0,
			"byteLength":8088,
			"byteOffset":25608,
			"target":34962
		},
		{
			"buffer":0,
			"byteLength":8088,
			"byteOffset":33696,
			"target":34962
		},
		{
			"buffer":0,
			"byteLength":5392,
			"byteOffset":41784,
			"target":34962
		},
		{
			"buffer":0,
			"byteLength":2016,
			"byteOffset":47176,
			"target":34963
		},
		{
			"buffer":0,
			"byteLength":3168,
			"byteOffset":49192,
			"target":34962
		},
		{
			"buffer":0,
			"byteLength":3168,
			"byteOffset":52360,
			"target":34962
		},
		{
			"buffer":0,
			"byteLength":2112,
			"byteOffset":55528,
			"target":34962
		},
		{
			"buffer":0,
			"byteLength":792,
			"byteOffset":57640,
			"target":34963
		}
	],
	"samplers":[
		{
			"magFilter":9729,
			"minFilter":9987
		}
	],
	"buffers":[
		{
			"byteLength":58432,
			"uri":"frigogidaire.bin"
		}
	]
}
